<svg version="1.1" viewBox="0.0 0.0 777.0 494.0" fill="none" stroke="none" stroke-linecap="square" stroke-miterlimit="10" width="777" height="494" xmlns:xlink="http://www.w3.org/1999/xlink" xmlns="http://www.w3.org/2000/svg"><path fill="#ffffff" d="M0 0L777.0 0L777.0 494.0L0 494.0L0 0Z" fill-rule="nonzero"/><path fill="#cc0000" d="M358.23016 76.16686C368.26117 75.201744 378.37466 74.7175 388.5 74.7175L388.5 230.3275Z" fill-rule="nonzero"/><path fill="#b7b7b7" d="M299.93542 87.60025C318.53128 81.94614 338.14468 78.09934 358.23016 76.16686L388.5 230.3275Z" fill-rule="nonzero"/><path fill="#f6b26b" d="M226.03517 124.1154C246.83313 108.52697 271.98724 96.097984 299.93542 87.60025L388.5 230.3275Z" fill-rule="nonzero"/><path fill="#7f9776" d="M179.0354 315.7831C170.54114 299.0527 166.2 281.4281 166.2 263.6725L166.2 230.3275C166.2 248.08308 170.54114 265.7077 179.0354 282.4381Z" fill-rule="nonzero"/><path fill="#b6d7a8" d="M179.0354 282.4381C151.22452 227.6615 169.3509 166.60121 226.03517 124.1154L388.5 230.3275Z" fill-rule="nonzero"/><path fill="#b3a06b" d="M226.03517 369.88458C205.2372 354.29617 189.23946 335.88116 179.0354 315.7831L179.0354 282.4381C189.23946 302.53616 205.2372 320.95117 226.03517 336.53958Z" fill-rule="nonzero"/><path fill="#ffe599" d="M226.03517 336.53958C205.2372 320.95117 189.23946 302.53616 179.0354 282.4381L388.5 230.3275Z" fill-rule="nonzero"/><path fill="#8d99ae" d="M328.52417 413.51205C289.29565 405.81815 253.84186 390.7262 226.03517 369.88458L226.03517 336.53958C253.84186 357.3812 289.29565 372.47314 328.52417 380.16705Z" fill-rule="nonzero"/><path fill="#c9daf8" d="M328.52417 380.16705C289.29565 372.47314 253.84186 357.3812 226.03517 336.53958L388.5 230.3275Z" fill-rule="nonzero"/><path fill="#4c6fa5" d="M610.8 263.6725C610.8 312.36142 578.244 358.24374 522.8218 387.66333C467.3995 417.08295 395.50046 426.64816 328.52417 413.51205L328.52417 380.16705C395.50046 393.30316 467.3995 383.73795 522.8218 354.31833C578.244 324.89874 610.8 279.01642 610.8 230.3275Z" fill-rule="nonzero"/><path fill="#6d9eeb" d="M388.5 74.7175C475.19785 74.7175 553.98553 110.00008 590.3272 165.09944C626.66895 220.1988 613.93317 285.06064 557.70245 331.25336C501.4718 377.44608 412.00702 396.54062 328.52417 380.16705L388.5 230.3275Z" fill-rule="nonzero"/><path fill="#1a1a1a" d="M33.2 45.480186L35.434376 46.198936Q34.91875 48.073936 33.715626 48.99581Q32.528126 49.90206 30.684376 49.90206Q28.403126 49.90206 26.934376 48.33956Q25.465626 46.77706 25.465626 44.073936Q25.465626 41.21456 26.934376 39.636436Q28.41875 38.042686 30.825 38.042686Q32.91875 38.042686 34.23125 39.292686Q35.0125 40.02706 35.403126 41.40206L33.121876 41.948936Q32.91875 41.05831 32.2625 40.542686Q31.621876 40.02706 30.7 40.02706Q29.434376 40.02706 28.6375 40.948936Q27.840626 41.855186 27.840626 43.90206Q27.840626 46.073936 28.621876 46.99581Q29.403126 47.917686 30.653126 47.917686Q31.575 47.917686 32.23125 47.33956Q32.903126 46.74581 33.2 45.480186ZM40.45 49.698936L40.45 40.18331L37.04375 40.18331L37.04375 38.24581L46.153126 38.24581L46.153126 40.18331L42.7625 40.18331L42.7625 49.698936L40.45 49.698936ZM47.871876 49.698936L47.871876 38.24581L52.746876 38.24581Q54.575 38.24581 55.403126 38.55831Q56.246876 38.855186 56.746876 39.65206Q57.246876 40.43331 57.246876 41.448936Q57.246876 42.74581 56.48125 43.58956Q55.73125 44.417686 54.215626 44.636436Q54.965626 45.073936 55.45 45.605186Q55.95 46.12081 56.778126 47.46456L58.16875 49.698936L55.403126 49.698936L53.73125 47.198936Q52.840626 45.87081 52.5125 45.52706Q52.184376 45.167686 51.809376 45.042686Q51.45 44.917686 50.653126 44.917686L50.184376 44.917686L50.184376 49.698936L47.871876 49.698936ZM50.184376 43.08956L51.903126 43.08956Q53.559376 43.08956 53.965626 42.948936Q54.3875 42.80831 54.621876 42.46456Q54.85625 42.12081 54.85625 41.605186Q54.85625 41.02706 54.54375 40.667686Q54.246876 40.30831 53.684376 40.21456Q53.403126 40.18331 51.996876 40.18331L50.184376 40.18331L50.184376 43.08956ZM59.934376 49.698936L59.934376 38.33956L62.246876 38.33956L62.246876 47.761436L67.99687 47.761436L67.99687 49.698936L59.934376 49.698936ZM69.87187 49.698936L69.87187 38.24581L73.575 38.24581Q75.68437 38.24581 76.325 38.417686Q77.30937 38.667686 77.96562 39.542686Q78.6375 40.40206 78.6375 41.761436Q78.6375 42.823936 78.24687 43.542686Q77.87187 44.261436 77.27812 44.667686Q76.7 45.073936 76.09062 45.21456Q75.2625 45.37081 73.68437 45.37081L72.18437 45.37081L72.18437 49.698936L69.87187 49.698936ZM72.18437 40.18331L72.18437 43.43331L73.45 43.43331Q74.80937 43.43331 75.2625 43.261436Q75.73125 43.073936 75.99687 42.698936Q76.2625 42.30831 76.2625 41.792686Q76.2625 41.167686 75.8875 40.761436Q75.52812 40.355186 74.96562 40.261436Q74.54375 40.18331 73.29375 40.18331L72.18437 40.18331ZM80.87187 49.698936L80.87187 38.24581L85.74687 38.24581Q87.575 38.24581 88.40312 38.55831Q89.24687 38.855186 89.74687 39.65206Q90.24687 40.43331 90.24687 41.448936Q90.24687 42.74581 89.48125 43.58956Q88.73125 44.417686 87.21562 44.636436Q87.96562 45.073936 88.45 45.605186Q88.95 46.12081 89.77812 47.46456L91.16875 49.698936L88.40312 49.698936L86.73125 47.198936Q85.84062 45.87081 85.5125 45.52706Q85.18437 45.167686 84.80937 45.042686Q84.45 44.917686 83.65312 44.917686L83.18437 44.917686L83.18437 49.698936L80.87187 49.698936ZM83.18437 43.08956L84.90312 43.08956Q86.55937 43.08956 86.96562 42.948936Q87.3875 42.80831 87.62187 42.46456Q87.85625 42.12081 87.85625 41.605186Q87.85625 41.02706 87.54375 40.667686Q87.24687 40.30831 86.68437 40.21456Q86.40312 40.18331 84.99687 40.18331L83.18437 40.18331L83.18437 43.08956ZM92.87187 49.698936L92.87187 38.24581L101.35625 38.24581L101.35625 40.18331L95.18437 40.18331L95.18437 42.71456L100.93437 42.71456L100.93437 44.65206L95.18437 44.65206L95.18437 47.761436L101.575 47.761436L101.575 49.698936L92.87187 49.698936ZM103.27812 45.96456L105.52812 45.74581Q105.73125 46.886436 106.35625 47.417686Q106.98125 47.948936 108.02812 47.948936Q109.15312 47.948936 109.71562 47.480186Q110.27812 46.99581 110.27812 46.37081Q110.27812 45.96456 110.04375 45.68331Q109.80937 45.386436 109.21562 45.18331Q108.80937 45.042686 107.35625 44.68331Q105.49687 44.21456 104.74687 43.542686Q103.7 42.605186 103.7 41.24581Q103.7 40.37081 104.18437 39.605186Q104.68437 38.83956 105.62187 38.448936Q106.55937 38.042686 107.87187 38.042686Q110.02812 38.042686 111.12187 38.99581Q112.21562 39.93331 112.2625 41.511436L109.95 41.62081Q109.80937 40.730186 109.30937 40.355186Q108.825 39.96456 107.85625 39.96456Q106.84062 39.96456 106.27812 40.37081Q105.90312 40.636436 105.90312 41.08956Q105.90312 41.49581 106.24687 41.77706Q106.68437 42.15206 108.37187 42.55831Q110.05937 42.948936 110.87187 43.37081Q111.68437 43.792686 112.1375 44.542686Q112.59062 45.27706 112.59062 46.355186Q112.59062 47.33956 112.04375 48.198936Q111.49687 49.05831 110.49687 49.480186Q109.49687 49.90206 108.0125 49.90206Q105.84062 49.90206 104.66875 48.90206Q103.5125 47.886436 103.27812 45.96456ZM114.27812 45.96456L116.52812 45.74581Q116.73125 46.886436 117.35625 47.417686Q117.98125 47.948936 119.02812 47.948936Q120.15312 47.948936 120.71562 47.480186Q121.27812 46.99581 121.27812 46.37081Q121.27812 45.96456 121.04375 45.68331Q120.80937 45.386436 120.21562 45.18331Q119.80937 45.042686 118.35625 44.68331Q116.49687 44.21456 115.74687 43.542686Q114.7 42.605186 114.7 41.24581Q114.7 40.37081 115.18437 39.605186Q115.68437 38.83956 116.62187 38.448936Q117.55937 38.042686 118.87187 38.042686Q121.02812 38.042686 122.12187 38.99581Q123.21562 39.93331 123.2625 41.511436L120.95 41.62081Q120.80937 40.730186 120.30937 40.355186Q119.825 39.96456 118.85625 39.96456Q117.84062 39.96456 117.27812 40.37081Q116.90312 40.636436 116.90312 41.08956Q116.90312 41.49581 117.24687 41.77706Q117.68437 42.15206 119.37187 42.55831Q121.05937 42.948936 121.87187 43.37081Q122.68437 43.792686 123.1375 44.542686Q123.59062 45.27706 123.59062 46.355186Q123.59062 47.33956 123.04375 48.198936Q122.49687 49.05831 121.49687 49.480186Q120.49687 49.90206 119.0125 49.90206Q116.84062 49.90206 115.66875 48.90206Q114.5125 47.886436 114.27812 45.96456ZM125.87187 49.698936L125.87187 38.24581L134.35625 38.24581L134.35625 40.18331L128.18437 40.18331L128.18437 42.71456L133.93437 42.71456L133.93437 44.65206L128.18437 44.65206L128.18437 47.761436L134.575 47.761436L134.575 49.698936L125.87187 49.698936ZM136.85625 38.24581L141.09062 38.24581Q142.5125 38.24581 143.2625 38.46456Q144.27812 38.761436 144.99687 39.52706Q145.71562 40.27706 146.09062 41.37081Q146.46562 42.46456 146.46562 44.073936Q146.46562 45.49581 146.10625 46.511436Q145.68437 47.761436 144.8875 48.542686Q144.27812 49.12081 143.2625 49.448936Q142.49687 49.698936 141.21562 49.698936L136.85625 49.698936L136.85625 38.24581ZM139.16875 40.18331L139.16875 47.761436L140.90312 47.761436Q141.87187 47.761436 142.29375 47.65206Q142.85625 47.511436 143.23125 47.18331Q143.60625 46.83956 143.84062 46.073936Q144.075 45.30831 144.075 43.980186Q144.075 42.65206 143.84062 41.948936Q143.60625 41.230186 143.18437 40.83956Q142.7625 40.43331 142.10625 40.292686Q141.62187 40.18331 140.21562 40.18331L139.16875 40.18331Z" fill-rule="nonzero"/><path fill="#9e9e9e" d="M32.79375 69.65206L32.79375 71.69894L25.10625 71.69894Q25.23125 70.54269 25.85625 69.51144Q26.48125 68.46456 28.325 66.76144Q29.809376 65.37081 30.1375 64.88644Q30.590626 64.19894 30.590626 63.542686Q30.590626 62.80831 30.2 62.417686Q29.809376 62.011436 29.10625 62.011436Q28.41875 62.011436 28.0125 62.43331Q27.60625 62.83956 27.54375 63.80831L25.35625 63.58956Q25.559376 61.77706 26.590626 60.99581Q27.621876 60.198936 29.16875 60.198936Q30.85625 60.198936 31.825 61.12081Q32.79375 62.02706 32.79375 63.386436Q32.79375 64.15206 32.5125 64.85519Q32.246876 65.55831 31.6375 66.32394Q31.246876 66.82394 30.2 67.77706Q29.16875 68.73019 28.8875 69.04269Q28.60625 69.35519 28.434376 69.65206L32.79375 69.65206ZM34.85625 71.69894L34.85625 69.49581L37.04375 69.49581L37.04375 71.69894L34.85625 71.69894ZM45.79375 69.65206L45.79375 71.69894L38.10625 71.69894Q38.23125 70.54269 38.85625 69.51144Q39.48125 68.46456 41.325 66.76144Q42.809376 65.37081 43.1375 64.88644Q43.590626 64.19894 43.590626 63.542686Q43.590626 62.80831 43.2 62.417686Q42.809376 62.011436 42.10625 62.011436Q41.41875 62.011436 41.0125 62.43331Q40.60625 62.83956 40.54375 63.80831L38.35625 63.58956Q38.559376 61.77706 39.590626 60.99581Q40.621876 60.198936 42.16875 60.198936Q43.85625 60.198936 44.825 61.12081Q45.79375 62.02706 45.79375 63.386436Q45.79375 64.15206 45.5125 64.85519Q45.246876 65.55831 44.6375 66.32394Q44.246876 66.82394 43.2 67.77706Q42.16875 68.73019 41.8875 69.04269Q41.60625 69.35519 41.434376 69.65206L45.79375 69.65206ZM47.403126 63.073936Q47.403126 61.52706 48.075 60.792686Q48.746876 60.042686 49.903126 60.042686Q51.10625 60.042686 51.778126 60.792686Q52.45 61.52706 52.45 63.073936Q52.45 64.60519 51.778126 65.35519Q51.10625 66.08956 49.95 66.08956Q48.746876 66.08956 48.075 65.35519Q47.403126 64.62081 47.403126 63.073936ZM49.10625 63.05831Q49.10625 64.16769 49.371876 64.55831Q49.559376 64.83956 49.903126 64.83956Q50.2625 64.83956 50.45 64.55831Q50.7 64.16769 50.7 63.05831Q50.7 61.93331 50.45 61.55831Q50.2625 61.27706 49.903126 61.27706Q49.559376 61.27706 49.371876 61.55831Q49.10625 61.93331 49.10625 63.05831ZM51.575 72.13644L49.95 72.13644L56.059376 60.042686L57.6375 60.042686L51.575 72.13644ZM55.121876 69.12081Q55.121876 67.58956 55.79375 66.85519Q56.48125 66.10519 57.653126 66.10519Q58.825 66.10519 59.496876 66.85519Q60.184376 67.58956 60.184376 69.12081Q60.184376 70.66769 59.496876 71.41769Q58.825 72.16769 57.66875 72.16769Q56.48125 72.16769 55.79375 71.41769Q55.121876 70.66769 55.121876 69.12081ZM56.840626 69.12081Q56.840626 70.23019 57.090626 70.60519Q57.29375 70.90206 57.6375 70.90206Q57.98125 70.90206 58.16875 70.62081Q58.434376 70.23019 58.434376 69.12081Q58.434376 67.99581 58.184376 67.62081Q57.98125 67.33956 57.6375 67.33956Q57.278126 67.33956 57.090626 67.62081Q56.840626 67.99581 56.840626 69.12081Z" fill-rule="nonzero"/><path stroke="#757575" stroke-width="1.0" stroke-linecap="butt" d="M24.7 55.198936L160.2 55.198936L374.08823 82.84263" fill-rule="nonzero"/><path fill="#9e9e9e" d="M376.08823 82.84263C376.08823 81.73805 375.1928 80.84263 374.08823 80.84263C372.98364 80.84263 372.08823 81.73805 372.08823 82.84263C372.08823 83.9472 372.98364 84.84263 374.08823 84.84263C375.1928 84.84263 376.08823 83.9472 376.08823 82.84263" fill-rule="nonzero"/><path fill="#1a1a1a" d="M33.2 86.48019L35.434376 87.19894Q34.91875 89.07394 33.715626 89.99581Q32.528126 90.90206 30.684376 90.90206Q28.403126 90.90206 26.934376 89.33956Q25.465626 87.77706 25.465626 85.07394Q25.465626 82.21456 26.934376 80.63644Q28.41875 79.04269 30.825 79.04269Q32.91875 79.04269 34.23125 80.29269Q35.0125 81.02706 35.403126 82.40206L33.121876 82.94894Q32.91875 82.05831 32.2625 81.54269Q31.621876 81.02706 30.7 81.02706Q29.434376 81.02706 28.6375 81.94894Q27.840626 82.85519 27.840626 84.90206Q27.840626 87.07394 28.621876 87.99581Q29.403126 88.91769 30.653126 88.91769Q31.575 88.91769 32.23125 88.33956Q32.903126 87.74581 33.2 86.48019ZM37.871876 90.69894L37.871876 79.24581L40.184376 79.24581L40.184376 83.74581L44.715626 83.74581L44.715626 79.24581L47.028126 79.24581L47.028126 90.69894L44.715626 90.69894L44.715626 85.68331L40.184376 85.68331L40.184376 90.69894L37.871876 90.69894ZM49.871876 90.69894L49.871876 79.24581L58.35625 79.24581L58.35625 81.18331L52.184376 81.18331L52.184376 83.71456L57.934376 83.71456L57.934376 85.65206L52.184376 85.65206L52.184376 88.76144L58.575 88.76144L58.575 90.69894L49.871876 90.69894ZM68.2 86.48019L70.43437 87.19894Q69.91875 89.07394 68.71562 89.99581Q67.52812 90.90206 65.68437 90.90206Q63.403126 90.90206 61.934376 89.33956Q60.465626 87.77706 60.465626 85.07394Q60.465626 82.21456 61.934376 80.63644Q63.41875 79.04269 65.825 79.04269Q67.91875 79.04269 69.23125 80.29269Q70.0125 81.02706 70.40312 82.40206L68.12187 82.94894Q67.91875 82.05831 67.2625 81.54269Q66.62187 81.02706 65.7 81.02706Q64.43437 81.02706 63.6375 81.94894Q62.840626 82.85519 62.840626 84.90206Q62.840626 87.07394 63.621876 87.99581Q64.40312 88.91769 65.65312 88.91769Q66.575 88.91769 67.23125 88.33956Q67.90312 87.74581 68.2 86.48019ZM72.90312 90.69894L72.90312 79.24581L75.21562 79.24581L75.21562 84.32394L79.8875 79.24581L82.99687 79.24581L78.68437 83.69894L83.23125 90.69894L80.23125 90.69894L77.09062 85.32394L75.21562 87.23019L75.21562 90.69894L72.90312 90.69894ZM84.87187 90.69894L84.87187 79.24581L93.35625 79.24581L93.35625 81.18331L87.18437 81.18331L87.18437 83.71456L92.93437 83.71456L92.93437 85.65206L87.18437 85.65206L87.18437 88.76144L93.575 88.76144L93.575 90.69894L84.87187 90.69894ZM95.85625 79.24581L100.09062 79.24581Q101.5125 79.24581 102.2625 79.46456Q103.27812 79.76144 103.99687 80.52706Q104.71562 81.27706 105.09062 82.37081Q105.46562 83.46456 105.46562 85.07394Q105.46562 86.49581 105.10625 87.51144Q104.68437 88.76144 103.8875 89.54269Q103.27812 90.12081 102.2625 90.44894Q101.49687 90.69894 100.21562 90.69894L95.85625 90.69894L95.85625 79.24581ZM98.16875 81.18331L98.16875 88.76144L99.90312 88.76144Q100.87187 88.76144 101.29375 88.65206Q101.85625 88.51144 102.23125 88.18331Q102.60625 87.83956 102.84062 87.07394Q103.075 86.30831 103.075 84.98019Q103.075 83.65206 102.84062 82.94894Q102.60625 82.23019 102.18437 81.83956Q101.7625 81.43331 101.10625 81.29269Q100.62187 81.18331 99.21562 81.18331L98.16875 81.18331Z" fill-rule="nonzero"/><path fill="#9e9e9e" d="M29.684376 112.69894L29.684376 110.38644L24.996876 110.38644L24.996876 108.46456L29.965626 101.19894L31.809376 101.19894L31.809376 108.46456L33.23125 108.46456L33.23125 110.38644L31.809376 110.38644L31.809376 112.69894L29.684376 112.69894ZM29.684376 108.46456L29.684376 104.54269L27.059376 108.46456L29.684376 108.46456ZM34.85625 112.69894L34.85625 110.49581L37.04375 110.49581L37.04375 112.69894L34.85625 112.69894ZM38.309376 109.65206L40.434376 109.40206Q40.528126 110.21456 40.965626 110.65206Q41.41875 111.07394 42.059376 111.07394Q42.73125 111.07394 43.2 110.55831Q43.66875 110.04269 43.66875 109.16769Q43.66875 108.33956 43.215626 107.85519Q42.778126 107.37081 42.1375 107.37081Q41.715626 107.37081 41.121876 107.52706L41.371876 105.74581Q42.2625 105.76144 42.73125 105.35519Q43.2 104.94894 43.2 104.26144Q43.2 103.68331 42.85625 103.33956Q42.5125 102.99581 41.934376 102.99581Q41.371876 102.99581 40.965626 103.38644Q40.575 103.77706 40.496876 104.52706L38.465626 104.18331Q38.684376 103.15206 39.10625 102.52706Q39.528126 101.90206 40.29375 101.55831Q41.059376 101.19894 41.996876 101.19894Q43.621876 101.19894 44.590626 102.23019Q45.403126 103.07394 45.403126 104.13644Q45.403126 105.63644 43.746876 106.54269Q44.73125 106.74581 45.325 107.48019Q45.91875 108.21456 45.91875 109.26144Q45.91875 110.76144 44.809376 111.83956Q43.715626 112.90206 42.075 112.90206Q40.5125 112.90206 39.48125 112.01144Q38.465626 111.10519 38.309376 109.65206ZM47.403126 104.07394Q47.403126 102.52706 48.075 101.79269Q48.746876 101.04269 49.903126 101.04269Q51.10625 101.04269 51.778126 101.79269Q52.45 102.52706 52.45 104.07394Q52.45 105.60519 51.778126 106.35519Q51.10625 107.08956 49.95 107.08956Q48.746876 107.08956 48.075 106.35519Q47.403126 105.62081 47.403126 104.07394ZM49.10625 104.05831Q49.10625 105.16769 49.371876 105.55831Q49.559376 105.83956 49.903126 105.83956Q50.2625 105.83956 50.45 105.55831Q50.7 105.16769 50.7 104.05831Q50.7 102.93331 50.45 102.55831Q50.2625 102.27706 49.903126 102.27706Q49.559376 102.27706 49.371876 102.55831Q49.10625 102.93331 49.10625 104.05831ZM51.575 113.13644L49.95 113.13644L56.059376 101.04269L57.6375 101.04269L51.575 113.13644ZM55.121876 110.12081Q55.121876 108.58956 55.79375 107.85519Q56.48125 107.10519 57.653126 107.10519Q58.825 107.10519 59.496876 107.85519Q60.184376 108.58956 60.184376 110.12081Q60.184376 111.66769 59.496876 112.41769Q58.825 113.16769 57.66875 113.16769Q56.48125 113.16769 55.79375 112.41769Q55.121876 111.66769 55.121876 110.12081ZM56.840626 110.12081Q56.840626 111.23019 57.090626 111.60519Q57.29375 111.90206 57.6375 111.90206Q57.98125 111.90206 58.16875 111.62081Q58.434376 111.23019 58.434376 110.12081Q58.434376 108.99581 58.184376 108.62081Q57.98125 108.33956 57.6375 108.33956Q57.278126 108.33956 57.090626 108.62081Q56.840626 108.99581 56.840626 110.12081Z" fill-rule="nonzero"/><path stroke="#757575" stroke-width="1.0" stroke-linecap="butt" d="M24.7 96.19894L160.2 96.19894L331.52298 87.97992" fill-rule="nonzero"/><path fill="#9e9e9e" d="M333.52298 87.97992C333.52298 86.87535 332.62753 85.97992 331.52298 85.97992C330.4184 85.97992 329.52298 86.87535 329.52298 87.97992C329.52298 89.08449 330.4184 89.97992 331.52298 89.97992C332.62753 89.97992 333.52298 89.08449 333.52298 87.97992" fill-rule="nonzero"/><path fill="#1a1a1a" d="M31.2 127.480194L31.2 125.55832L36.184376 125.55832L36.184376 130.12082Q35.45 130.82394 34.075 131.37082Q32.7 131.90207 31.278126 131.90207Q29.48125 131.90207 28.1375 131.15207Q26.809376 130.38644 26.1375 128.9802Q25.465626 127.573944 25.465626 125.93332Q25.465626 124.136444 26.215626 122.74582Q26.965626 121.355194 28.41875 120.62082Q29.5125 120.042694 31.153126 120.042694Q33.29375 120.042694 34.48125 120.948944Q35.684376 121.83957 36.028126 123.417694L33.73125 123.83957Q33.496876 122.99582 32.825 122.511444Q32.153126 122.02707 31.153126 122.02707Q29.6375 122.02707 28.746876 122.99582Q27.85625 123.948944 27.85625 125.83957Q27.85625 127.87082 28.7625 128.90207Q29.66875 129.9177 31.1375 129.9177Q31.85625 129.9177 32.590626 129.63644Q33.325 129.33957 33.840626 128.93332L33.840626 127.480194L31.2 127.480194ZM37.871876 131.69894L37.871876 120.24582L46.35625 120.24582L46.35625 122.18332L40.184376 122.18332L40.184376 124.71457L45.934376 124.71457L45.934376 126.65207L40.184376 126.65207L40.184376 129.76144L46.575 129.76144L46.575 131.69894L37.871876 131.69894ZM51.45 131.69894L51.45 122.18332L48.04375 122.18332L48.04375 120.24582L57.153126 120.24582L57.153126 122.18332L53.7625 122.18332L53.7625 131.69894L51.45 131.69894ZM58.903126 131.69894L58.903126 120.24582L61.215626 120.24582L61.215626 125.323944L65.8875 120.24582L68.99687 120.24582L64.68437 124.698944L69.23125 131.69894L66.23125 131.69894L63.090626 126.323944L61.215626 128.2302L61.215626 131.69894L58.903126 131.69894ZM70.87187 131.69894L70.87187 120.24582L79.35625 120.24582L79.35625 122.18332L73.18437 122.18332L73.18437 124.71457L78.93437 124.71457L78.93437 126.65207L73.18437 126.65207L73.18437 129.76144L79.575 129.76144L79.575 131.69894L70.87187 131.69894ZM84.87187 131.69894L84.87187 126.87082L80.66875 120.24582L83.3875 120.24582L86.09062 124.77707L88.73125 120.24582L91.3875 120.24582L87.18437 126.886444L87.18437 131.69894L84.87187 131.69894ZM99.2 127.480194L101.43437 128.19894Q100.91875 130.07394 99.71562 130.99582Q98.52812 131.90207 96.68437 131.90207Q94.40312 131.90207 92.93437 130.33957Q91.46562 128.77707 91.46562 126.073944Q91.46562 123.21457 92.93437 121.636444Q94.41875 120.042694 96.825 120.042694Q98.91875 120.042694 100.23125 121.292694Q101.0125 122.02707 101.40312 123.40207L99.12187 123.948944Q98.91875 123.05832 98.2625 122.542694Q97.62187 122.02707 96.7 122.02707Q95.43437 122.02707 94.6375 122.948944Q93.84062 123.855194 93.84062 125.90207Q93.84062 128.07394 94.62187 128.99582Q95.40312 129.9177 96.65312 129.9177Q97.575 129.9177 98.23125 129.33957Q98.90312 128.74582 99.2 127.480194ZM103.40312 126.042694Q103.40312 124.292694 103.91875 123.105194Q104.30937 122.230194 104.98125 121.542694Q105.66875 120.83957 106.46562 120.49582Q107.54375 120.042694 108.93437 120.042694Q111.46562 120.042694 112.98125 121.62082Q114.5125 123.18332 114.5125 125.980194Q114.5125 128.76144 112.99687 130.33957Q111.49687 131.90207 108.96562 131.90207Q106.41875 131.90207 104.90312 130.33957Q103.40312 128.77707 103.40312 126.042694ZM105.77812 125.96457Q105.77812 127.90207 106.66875 128.9177Q107.575 129.9177 108.96562 129.9177Q110.34062 129.9177 111.23125 128.9177Q112.12187 127.917694 112.12187 125.93332Q112.12187 123.96457 111.24687 122.99582Q110.3875 122.02707 108.96562 122.02707Q107.52812 122.02707 106.65312 123.011444Q105.77812 123.980194 105.77812 125.96457ZM115.85625 120.24582L120.09062 120.24582Q121.5125 120.24582 122.2625 120.46457Q123.27812 120.761444 123.99687 121.52707Q124.71562 122.27707 125.09062 123.37082Q125.46562 124.46457 125.46562 126.073944Q125.46562 127.49582 125.10625 128.51144Q124.68437 129.76144 123.8875 130.5427Q123.27812 131.12082 122.2625 131.44894Q121.49687 131.69894 120.21562 131.69894L115.85625 131.69894L115.85625 120.24582ZM118.16875 122.18332L118.16875 129.76144L119.90312 129.76144Q120.87187 129.76144 121.29375 129.65207Q121.85625 129.51144 122.23125 129.18332Q122.60625 128.83957 122.84062 128.07394Q123.075 127.30832 123.075 125.980194Q123.075 124.65207 122.84062 123.948944Q122.60625 123.230194 122.18437 122.83957Q121.7625 122.43332 121.10625 122.292694Q120.62187 122.18332 119.21562 122.18332L118.16875 122.18332ZM127.87187 131.69894L127.87187 120.24582L136.35625 120.24582L136.35625 122.18332L130.18437 122.18332L130.18437 124.71457L135.93437 124.71457L135.93437 126.65207L130.18437 126.65207L130.18437 129.76144L136.575 129.76144L136.575 131.69894L127.87187 131.69894Z" fill-rule="nonzero"/><path fill="#9e9e9e" d="M32.825 145.0427L30.7 145.27707Q30.621876 144.62082 30.29375 144.30832Q29.965626 143.99582 29.434376 143.99582Q28.746876 143.99582 28.2625 144.62082Q27.778126 145.24582 27.653126 147.2302Q28.48125 146.26144 29.7 146.26144Q31.075 146.26144 32.04375 147.30832Q33.028126 148.3552 33.028126 150.01144Q33.028126 151.76144 31.996876 152.83957Q30.965626 153.90207 29.35625 153.90207Q27.621876 153.90207 26.496876 152.55832Q25.3875 151.19894 25.3875 148.12082Q25.3875 144.9802 26.54375 143.58957Q27.715626 142.19894 29.575 142.19894Q30.871876 142.19894 31.73125 142.93332Q32.590626 143.65207 32.825 145.0427ZM27.840626 149.83957Q27.840626 150.90207 28.325 151.49582Q28.825 152.07394 29.465626 152.07394Q30.075 152.07394 30.48125 151.6052Q30.8875 151.12082 30.8875 150.02707Q30.8875 148.9177 30.45 148.40207Q30.0125 147.87082 29.35625 147.87082Q28.715626 147.87082 28.278126 148.37082Q27.840626 148.87082 27.840626 149.83957ZM34.85625 153.69894L34.85625 151.49582L37.04375 151.49582L37.04375 153.69894L34.85625 153.69894ZM38.41875 150.74582L40.60625 150.52707Q40.7 151.26144 41.153126 151.69894Q41.621876 152.13644 42.215626 152.13644Q42.903126 152.13644 43.371876 151.57394Q43.85625 151.01144 43.85625 149.88644Q43.85625 148.83957 43.3875 148.30832Q42.91875 147.77707 42.153126 147.77707Q41.215626 147.77707 40.465626 148.62082L38.684376 148.3552L39.809376 142.40207L45.60625 142.40207L45.60625 144.44894L41.465626 144.44894L41.121876 146.40207Q41.85625 146.02707 42.621876 146.02707Q44.090626 146.02707 45.10625 147.08957Q46.121876 148.15207 46.121876 149.8552Q46.121876 151.26144 45.29375 152.37082Q44.184376 153.90207 42.2 153.90207Q40.60625 153.90207 39.60625 153.0427Q38.60625 152.18332 38.41875 150.74582ZM47.403126 145.07394Q47.403126 143.52707 48.075 142.7927Q48.746876 142.0427 49.903126 142.0427Q51.10625 142.0427 51.778126 142.7927Q52.45 143.52707 52.45 145.07394Q52.45 146.6052 51.778126 147.3552Q51.10625 148.08957 49.95 148.08957Q48.746876 148.08957 48.075 147.3552Q47.403126 146.62082 47.403126 145.07394ZM49.10625 145.05832Q49.10625 146.1677 49.371876 146.55832Q49.559376 146.83957 49.903126 146.83957Q50.2625 146.83957 50.45 146.55832Q50.7 146.1677 50.7 145.05832Q50.7 143.93332 50.45 143.55832Q50.2625 143.27707 49.903126 143.27707Q49.559376 143.27707 49.371876 143.55832Q49.10625 143.93332 49.10625 145.05832ZM51.575 154.13644L49.95 154.13644L56.059376 142.0427L57.6375 142.0427L51.575 154.13644ZM55.121876 151.12082Q55.121876 149.58957 55.79375 148.8552Q56.48125 148.1052 57.653126 148.1052Q58.825 148.1052 59.496876 148.8552Q60.184376 149.58957 60.184376 151.12082Q60.184376 152.6677 59.496876 153.4177Q58.825 154.1677 57.66875 154.1677Q56.48125 154.1677 55.79375 153.4177Q55.121876 152.6677 55.121876 151.12082ZM56.840626 151.12082Q56.840626 152.2302 57.090626 152.6052Q57.29375 152.90207 57.6375 152.90207Q57.98125 152.90207 58.16875 152.62082Q58.434376 152.2302 58.434376 151.12082Q58.434376 149.99582 58.184376 149.62082Q57.98125 149.33957 57.6375 149.33957Q57.278126 149.33957 57.090626 149.62082Q56.840626 149.99582 56.840626 151.12082Z" fill-rule="nonzero"/><path stroke="#757575" stroke-width="1.0" stroke-linecap="butt" d="M24.7 137.19894L160.2 137.19894L266.71378 109.55525" fill-rule="nonzero"/><path fill="#9e9e9e" d="M268.71378 109.55525C268.71378 108.450676 267.81833 107.55525 266.71378 107.55525C265.6092 107.55525 264.71378 108.450676 264.71378 109.55525C264.71378 110.65982 265.6092 111.55525 266.71378 111.55525C267.81833 111.55525 268.71378 110.65982 268.71378 109.55525" fill-rule="nonzero"/><path fill="#1a1a1a" d="M25.8875 194.7507L25.8875 183.29758L33.73125 183.29758L33.73125 185.23508L28.2 185.23508L28.2 187.9382L32.98125 187.9382L32.98125 189.8757L28.2 189.8757L28.2 194.7507L25.8875 194.7507ZM35.403126 189.09445Q35.403126 187.34445 35.91875 186.15695Q36.309376 185.28195 36.98125 184.59445Q37.66875 183.89133 38.465626 183.54758Q39.54375 183.09445 40.934376 183.09445Q43.465626 183.09445 44.98125 184.67258Q46.5125 186.23508 46.5125 189.03195Q46.5125 191.8132 44.996876 193.39133Q43.496876 194.95383 40.965626 194.95383Q38.41875 194.95383 36.903126 193.39133Q35.403126 191.82883 35.403126 189.09445ZM37.778126 189.01633Q37.778126 190.95383 38.66875 191.96945Q39.575 192.96945 40.965626 192.96945Q42.340626 192.96945 43.23125 191.96945Q44.121876 190.96945 44.121876 188.98508Q44.121876 187.01633 43.246876 186.04758Q42.3875 185.07883 40.965626 185.07883Q39.528126 185.07883 38.653126 186.0632Q37.778126 187.03195 37.778126 189.01633ZM55.2 190.53195L57.434376 191.2507Q56.91875 193.1257 55.715626 194.04758Q54.528126 194.95383 52.684376 194.95383Q50.403126 194.95383 48.934376 193.39133Q47.465626 191.82883 47.465626 189.1257Q47.465626 186.26633 48.934376 184.6882Q50.41875 183.09445 52.825 183.09445Q54.91875 183.09445 56.23125 184.34445Q57.0125 185.07883 57.403126 186.45383L55.121876 187.0007Q54.91875 186.11008 54.2625 185.59445Q53.621876 185.07883 52.7 185.07883Q51.434376 185.07883 50.6375 186.0007Q49.840626 186.90695 49.840626 188.95383Q49.840626 191.1257 50.621876 192.04758Q51.403126 192.96945 52.653126 192.96945Q53.575 192.96945 54.23125 192.39133Q54.903126 191.79758 55.2 190.53195ZM59.85625 183.29758L62.16875 183.29758L62.16875 189.5007Q62.16875 190.96945 62.246876 191.40695Q62.403126 192.11008 62.95 192.54758Q63.5125 192.96945 64.48125 192.96945Q65.46562 192.96945 65.96562 192.5632Q66.46562 192.15695 66.55937 191.57883Q66.66875 190.98508 66.66875 189.6257L66.66875 183.29758L68.98125 183.29758L68.98125 189.3132Q68.98125 191.3757 68.79375 192.23508Q68.60625 193.07883 68.10625 193.67258Q67.60625 194.2507 66.7625 194.61008Q65.91875 194.95383 64.55937 194.95383Q62.91875 194.95383 62.059376 194.57883Q61.215626 194.1882 60.715626 193.57883Q60.23125 192.96945 60.075 192.3132Q59.85625 191.32883 59.85625 189.40695L59.85625 183.29758ZM71.27812 191.01633L73.52812 190.79758Q73.73125 191.9382 74.35625 192.46945Q74.98125 193.0007 76.02812 193.0007Q77.15312 193.0007 77.71562 192.53195Q78.27812 192.04758 78.27812 191.42258Q78.27812 191.01633 78.04375 190.73508Q77.80937 190.4382 77.21562 190.23508Q76.80937 190.09445 75.35625 189.73508Q73.49687 189.26633 72.74687 188.59445Q71.7 187.65695 71.7 186.29758Q71.7 185.42258 72.18437 184.65695Q72.68437 183.89133 73.62187 183.5007Q74.55937 183.09445 75.87187 183.09445Q78.02812 183.09445 79.12187 184.04758Q80.21562 184.98508 80.2625 186.5632L77.95 186.67258Q77.80937 185.78195 77.30937 185.40695Q76.825 185.01633 75.85625 185.01633Q74.84062 185.01633 74.27812 185.42258Q73.90312 185.6882 73.90312 186.14133Q73.90312 186.54758 74.24687 186.82883Q74.68437 187.20383 76.37187 187.61008Q78.05937 188.0007 78.87187 188.42258Q79.68437 188.84445 80.1375 189.59445Q80.59062 190.32883 80.59062 191.40695Q80.59062 192.39133 80.04375 193.2507Q79.49687 194.11008 78.49687 194.53195Q77.49687 194.95383 76.0125 194.95383Q73.84062 194.95383 72.66875 193.95383Q71.5125 192.9382 71.27812 191.01633ZM82.87187 194.7507L82.87187 183.29758L91.35625 183.29758L91.35625 185.23508L85.18437 185.23508L85.18437 187.76633L90.93437 187.76633L90.93437 189.70383L85.18437 189.70383L85.18437 192.8132L91.575 192.8132L91.575 194.7507L82.87187 194.7507ZM93.85625 183.29758L98.09062 183.29758Q99.5125 183.29758 100.2625 183.51633Q101.27812 183.8132 101.99687 184.57883Q102.71562 185.32883 103.09062 186.42258Q103.46562 187.51633 103.46562 189.1257Q103.46562 190.54758 103.10625 191.5632Q102.68437 192.8132 101.8875 193.59445Q101.27812 194.17258 100.2625 194.5007Q99.49687 194.7507 98.21562 194.7507L93.85625 194.7507L93.85625 183.29758ZM96.16875 185.23508L96.16875 192.8132L97.90312 192.8132Q98.87187 192.8132 99.29375 192.70383Q99.85625 192.5632 100.23125 192.23508Q100.60625 191.89133 100.84062 191.1257Q101.075 190.36008 101.075 189.03195Q101.075 187.70383 100.84062 187.0007Q100.60625 186.28195 100.18437 185.89133Q99.7625 185.48508 99.10625 185.34445Q98.62187 185.23508 97.21562 185.23508L96.16875 185.23508Z" fill-rule="nonzero"/><path fill="#9e9e9e" d="M30.996876 216.7507L28.809376 216.7507L28.809376 208.46945Q27.60625 209.59445 25.965626 210.14133L25.965626 208.14133Q26.825 207.86008 27.825 207.07883Q28.840626 206.29758 29.215626 205.2507L30.996876 205.2507L30.996876 216.7507ZM34.3875 207.48508L34.3875 205.45383L41.8875 205.45383L41.8875 207.04758Q40.965626 207.95383 39.996876 209.67258Q39.04375 211.3757 38.528126 213.3132Q38.028126 215.23508 38.04375 216.7507L35.91875 216.7507Q35.98125 214.3757 36.903126 211.90695Q37.825 209.4382 39.371876 207.48508L34.3875 207.48508ZM43.85625 216.7507L43.85625 214.54758L46.04375 214.54758L46.04375 216.7507L43.85625 216.7507ZM51.684376 216.7507L51.684376 214.4382L46.996876 214.4382L46.996876 212.51633L51.965626 205.2507L53.809376 205.2507L53.809376 212.51633L55.23125 212.51633L55.23125 214.4382L53.809376 214.4382L53.809376 216.7507L51.684376 216.7507ZM51.684376 212.51633L51.684376 208.59445L49.059376 212.51633L51.684376 212.51633ZM56.403126 208.1257Q56.403126 206.57883 57.075 205.84445Q57.746876 205.09445 58.903126 205.09445Q60.10625 205.09445 60.778126 205.84445Q61.45 206.57883 61.45 208.1257Q61.45 209.65695 60.778126 210.40695Q60.10625 211.14133 58.95 211.14133Q57.746876 211.14133 57.075 210.40695Q56.403126 209.67258 56.403126 208.1257ZM58.10625 208.11008Q58.10625 209.21945 58.371876 209.61008Q58.559376 209.89133 58.903126 209.89133Q59.2625 209.89133 59.45 209.61008Q59.7 209.21945 59.7 208.11008Q59.7 206.98508 59.45 206.61008Q59.2625 206.32883 58.903126 206.32883Q58.559376 206.32883 58.371876 206.61008Q58.10625 206.98508 58.10625 208.11008ZM60.575 217.1882L58.95 217.1882L65.05937 205.09445L66.6375 205.09445L60.575 217.1882ZM64.12187 214.17258Q64.12187 212.64133 64.79375 211.90695Q65.48125 211.15695 66.65312 211.15695Q67.825 211.15695 68.49687 211.90695Q69.18437 212.64133 69.18437 214.17258Q69.18437 215.71945 68.49687 216.46945Q67.825 217.21945 66.66875 217.21945Q65.48125 217.21945 64.79375 216.46945Q64.12187 215.71945 64.12187 214.17258ZM65.84062 214.17258Q65.84062 215.28195 66.09062 215.65695Q66.29375 215.95383 66.6375 215.95383Q66.98125 215.95383 67.16875 215.67258Q67.43437 215.28195 67.43437 214.17258Q67.43437 213.04758 67.18437 212.67258Q66.98125 212.39133 66.6375 212.39133Q66.27812 212.39133 66.09062 212.67258Q65.84062 213.04758 65.84062 214.17258Z" fill-rule="nonzero"/><path stroke="#757575" stroke-width="1.0" stroke-linecap="butt" d="M24.7 200.2507L160.2 200.2507L181.73213 200.2507" fill-rule="nonzero"/><path fill="#9e9e9e" d="M183.73213 200.2507C183.73213 199.14613 182.8367 198.2507 181.73213 198.2507C180.62756 198.2507 179.73213 199.14613 179.73213 200.2507C179.73213 201.35527 180.62756 202.2507 181.73213 202.2507C182.8367 202.2507 183.73213 201.35527 183.73213 200.2507" fill-rule="nonzero"/><path fill="#1a1a1a" d="M31.2 297.41858L31.2 295.4967L36.184376 295.4967L36.184376 300.0592Q35.45 300.76233 34.075 301.3092Q32.7 301.84045 31.278126 301.84045Q29.48125 301.84045 28.1375 301.09045Q26.809376 300.32483 26.1375 298.91858Q25.465626 297.51233 25.465626 295.8717Q25.465626 294.07483 26.215626 292.6842Q26.965626 291.29358 28.41875 290.5592Q29.5125 289.98108 31.153126 289.98108Q33.29375 289.98108 34.48125 290.88733Q35.684376 291.77795 36.028126 293.35608L33.73125 293.77795Q33.496876 292.9342 32.825 292.44983Q32.153126 291.96545 31.153126 291.96545Q29.6375 291.96545 28.746876 292.9342Q27.85625 293.88733 27.85625 295.77795Q27.85625 297.8092 28.7625 298.84045Q29.66875 299.85608 31.1375 299.85608Q31.85625 299.85608 32.590626 299.57483Q33.325 299.27795 33.840626 298.8717L33.840626 297.41858L31.2 297.41858ZM37.871876 301.63733L37.871876 290.1842L46.35625 290.1842L46.35625 292.1217L40.184376 292.1217L40.184376 294.65295L45.934376 294.65295L45.934376 296.59045L40.184376 296.59045L40.184376 299.69983L46.575 299.69983L46.575 301.63733L37.871876 301.63733ZM51.45 301.63733L51.45 292.1217L48.04375 292.1217L48.04375 290.1842L57.153126 290.1842L57.153126 292.1217L53.7625 292.1217L53.7625 301.63733L51.45 301.63733ZM69.2 301.63733L66.68437 301.63733L65.68437 299.02795L61.10625 299.02795L60.153126 301.63733L57.7 301.63733L62.16875 290.1842L64.60625 290.1842L69.2 301.63733ZM64.93437 297.10608L63.35625 292.85608L61.809376 297.10608L64.93437 297.10608ZM77.2 297.41858L79.43437 298.13733Q78.91875 300.01233 77.71562 300.9342Q76.52812 301.84045 74.68437 301.84045Q72.40312 301.84045 70.93437 300.27795Q69.46562 298.71545 69.46562 296.01233Q69.46562 293.15295 70.93437 291.57483Q72.41875 289.98108 74.825 289.98108Q76.91875 289.98108 78.23125 291.23108Q79.0125 291.96545 79.40312 293.34045L77.12187 293.88733Q76.91875 292.9967 76.2625 292.48108Q75.62187 291.96545 74.7 291.96545Q73.43437 291.96545 72.6375 292.88733Q71.84062 293.79358 71.84062 295.84045Q71.84062 298.01233 72.62187 298.9342Q73.40312 299.85608 74.65312 299.85608Q75.575 299.85608 76.23125 299.27795Q76.90312 298.6842 77.2 297.41858ZM84.45 301.63733L84.45 292.1217L81.04375 292.1217L81.04375 290.1842L90.15312 290.1842L90.15312 292.1217L86.7625 292.1217L86.7625 301.63733L84.45 301.63733ZM91.79375 301.63733L91.79375 290.1842L94.10625 290.1842L94.10625 301.63733L91.79375 301.63733ZM95.40312 295.98108Q95.40312 294.23108 95.91875 293.04358Q96.30937 292.16858 96.98125 291.48108Q97.66875 290.77795 98.46562 290.4342Q99.54375 289.98108 100.93437 289.98108Q103.46562 289.98108 104.98125 291.5592Q106.5125 293.1217 106.5125 295.91858Q106.5125 298.69983 104.99687 300.27795Q103.49687 301.84045 100.96562 301.84045Q98.41875 301.84045 96.90312 300.27795Q95.40312 298.71545 95.40312 295.98108ZM97.77812 295.90295Q97.77812 297.84045 98.66875 298.85608Q99.575 299.85608 100.96562 299.85608Q102.34062 299.85608 103.23125 298.85608Q104.12187 297.85608 104.12187 295.8717Q104.12187 293.90295 103.24687 292.9342Q102.3875 291.96545 100.96562 291.96545Q99.52812 291.96545 98.65312 292.94983Q97.77812 293.91858 97.77812 295.90295ZM107.8875 301.63733L107.8875 290.1842L110.1375 290.1842L114.825 297.82483L114.825 290.1842L116.98125 290.1842L116.98125 301.63733L114.65312 301.63733L110.04375 294.16858L110.04375 301.63733L107.8875 301.63733Z" fill-rule="nonzero"/><path fill="#9e9e9e" d="M32.825 314.98108L30.7 315.21545Q30.621876 314.5592 30.29375 314.2467Q29.965626 313.9342 29.434376 313.9342Q28.746876 313.9342 28.2625 314.5592Q27.778126 315.1842 27.653126 317.16858Q28.48125 316.19983 29.7 316.19983Q31.075 316.19983 32.04375 317.2467Q33.028126 318.29358 33.028126 319.94983Q33.028126 321.69983 31.996876 322.77795Q30.965626 323.84045 29.35625 323.84045Q27.621876 323.84045 26.496876 322.4967Q25.3875 321.13733 25.3875 318.0592Q25.3875 314.91858 26.54375 313.52795Q27.715626 312.13733 29.575 312.13733Q30.871876 312.13733 31.73125 312.8717Q32.590626 313.59045 32.825 314.98108ZM27.840626 319.77795Q27.840626 320.84045 28.325 321.4342Q28.825 322.01233 29.465626 322.01233Q30.075 322.01233 30.48125 321.54358Q30.8875 321.0592 30.8875 319.96545Q30.8875 318.85608 30.45 318.34045Q30.0125 317.8092 29.35625 317.8092Q28.715626 317.8092 28.278126 318.3092Q27.840626 318.8092 27.840626 319.77795ZM34.85625 323.63733L34.85625 321.4342L37.04375 321.4342L37.04375 323.63733L34.85625 323.63733ZM38.41875 320.6842L40.60625 320.46545Q40.7 321.19983 41.153126 321.63733Q41.621876 322.07483 42.215626 322.07483Q42.903126 322.07483 43.371876 321.51233Q43.85625 320.94983 43.85625 319.82483Q43.85625 318.77795 43.3875 318.2467Q42.91875 317.71545 42.153126 317.71545Q41.215626 317.71545 40.465626 318.5592L38.684376 318.29358L39.809376 312.34045L45.60625 312.34045L45.60625 314.38733L41.465626 314.38733L41.121876 316.34045Q41.85625 315.96545 42.621876 315.96545Q44.090626 315.96545 45.10625 317.02795Q46.121876 318.09045 46.121876 319.79358Q46.121876 321.19983 45.29375 322.3092Q44.184376 323.84045 42.2 323.84045Q40.60625 323.84045 39.60625 322.98108Q38.60625 322.1217 38.41875 320.6842ZM47.403126 315.01233Q47.403126 313.46545 48.075 312.73108Q48.746876 311.98108 49.903126 311.98108Q51.10625 311.98108 51.778126 312.73108Q52.45 313.46545 52.45 315.01233Q52.45 316.54358 51.778126 317.29358Q51.10625 318.02795 49.95 318.02795Q48.746876 318.02795 48.075 317.29358Q47.403126 316.5592 47.403126 315.01233ZM49.10625 314.9967Q49.10625 316.10608 49.371876 316.4967Q49.559376 316.77795 49.903126 316.77795Q50.2625 316.77795 50.45 316.4967Q50.7 316.10608 50.7 314.9967Q50.7 313.8717 50.45 313.4967Q50.2625 313.21545 49.903126 313.21545Q49.559376 313.21545 49.371876 313.4967Q49.10625 313.8717 49.10625 314.9967ZM51.575 324.07483L49.95 324.07483L56.059376 311.98108L57.6375 311.98108L51.575 324.07483ZM55.121876 321.0592Q55.121876 319.52795 55.79375 318.79358Q56.48125 318.04358 57.653126 318.04358Q58.825 318.04358 59.496876 318.79358Q60.184376 319.52795 60.184376 321.0592Q60.184376 322.60608 59.496876 323.35608Q58.825 324.10608 57.66875 324.10608Q56.48125 324.10608 55.79375 323.35608Q55.121876 322.60608 55.121876 321.0592ZM56.840626 321.0592Q56.840626 322.16858 57.090626 322.54358Q57.29375 322.84045 57.6375 322.84045Q57.98125 322.84045 58.16875 322.5592Q58.434376 322.16858 58.434376 321.0592Q58.434376 319.9342 58.184376 319.5592Q57.98125 319.27795 57.6375 319.27795Q57.278126 319.27795 57.090626 319.5592Q56.840626 319.9342 56.840626 321.0592Z" fill-rule="nonzero"/><path stroke="#757575" stroke-width="1.0" stroke-linecap="butt" d="M24.7 307.13733L160.2 307.13733L208.05943 307.13733" fill-rule="nonzero"/><path fill="#9e9e9e" d="M210.05943 307.13733C210.05943 306.03278 209.164 305.13733 208.05943 305.13733C206.95486 305.13733 206.05943 306.03278 206.05943 307.13733C206.05943 308.2419 206.95486 309.13733 208.05943 309.13733C209.164 309.13733 210.05943 308.2419 210.05943 307.13733" fill-rule="nonzero"/><path fill="#1a1a1a" d="M28.79375 351.1359L24.684376 339.68277L27.2 339.68277L30.10625 348.15152L32.903126 339.68277L35.35625 339.68277L31.2625 351.1359L28.79375 351.1359ZM36.79375 351.1359L36.79375 339.68277L39.10625 339.68277L39.10625 351.1359L36.79375 351.1359ZM40.278126 347.40152L42.528126 347.18277Q42.73125 348.3234 43.35625 348.85464Q43.98125 349.3859 45.028126 349.3859Q46.153126 349.3859 46.715626 348.91714Q47.278126 348.43277 47.278126 347.80777Q47.278126 347.40152 47.04375 347.12027Q46.809376 346.8234 46.215626 346.62027Q45.809376 346.47964 44.35625 346.12027Q42.496876 345.65152 41.746876 344.97964Q40.7 344.04214 40.7 342.68277Q40.7 341.80777 41.184376 341.04214Q41.684376 340.27652 42.621876 339.8859Q43.559376 339.47964 44.871876 339.47964Q47.028126 339.47964 48.121876 340.43277Q49.215626 341.37027 49.2625 342.9484L46.95 343.05777Q46.809376 342.16714 46.309376 341.79214Q45.825 341.40152 44.85625 341.40152Q43.840626 341.40152 43.278126 341.80777Q42.903126 342.0734 42.903126 342.52652Q42.903126 342.93277 43.246876 343.21402Q43.684376 343.58902 45.371876 343.99527Q47.059376 344.3859 47.871876 344.80777Q48.684376 345.22964 49.1375 345.97964Q49.590626 346.71402 49.590626 347.79214Q49.590626 348.77652 49.04375 349.6359Q48.496876 350.49527 47.496876 350.91714Q46.496876 351.33902 45.0125 351.33902Q42.840626 351.33902 41.66875 350.33902Q40.5125 349.3234 40.278126 347.40152ZM51.79375 351.1359L51.79375 339.68277L54.10625 339.68277L54.10625 351.1359L51.79375 351.1359ZM55.871876 339.68277L60.45 339.68277Q61.809376 339.68277 62.48125 339.79214Q63.153126 339.90152 63.66875 340.2609Q64.2 340.62027 64.54375 341.22964Q64.90312 341.8234 64.90312 342.55777Q64.90312 343.37027 64.46562 344.04214Q64.04375 344.71402 63.29375 345.04214Q64.34062 345.35464 64.90312 346.08902Q65.46562 346.8234 65.46562 347.80777Q65.46562 348.58902 65.10625 349.33902Q64.74687 350.0734 64.10625 350.5109Q63.48125 350.9484 62.559376 351.05777Q61.98125 351.12027 59.778126 351.1359L55.871876 351.1359L55.871876 339.68277ZM58.184376 341.58902L58.184376 344.22964L59.7 344.22964Q61.059376 344.22964 61.3875 344.1984Q61.98125 344.12027 62.309376 343.79214Q62.653126 343.4484 62.653126 342.8859Q62.653126 342.35464 62.35625 342.02652Q62.075 341.6984 61.496876 341.62027Q61.153126 341.58902 59.5125 341.58902L58.184376 341.58902ZM58.184376 346.1359L58.184376 349.1984L60.325 349.1984Q61.575 349.1984 61.91875 349.1359Q62.434376 349.04214 62.746876 348.68277Q63.075 348.30777 63.075 347.6984Q63.075 347.18277 62.825 346.8234Q62.575 346.46402 62.10625 346.30777Q61.6375 346.1359 60.059376 346.1359L58.184376 346.1359ZM67.79375 351.1359L67.79375 339.68277L70.10625 339.68277L70.10625 351.1359L67.79375 351.1359ZM71.93437 351.1359L71.93437 339.77652L74.24687 339.77652L74.24687 349.1984L79.99687 349.1984L79.99687 351.1359L71.93437 351.1359ZM81.79375 351.1359L81.79375 339.68277L84.10625 339.68277L84.10625 351.1359L81.79375 351.1359ZM88.45 351.1359L88.45 341.62027L85.04375 341.62027L85.04375 339.68277L94.15312 339.68277L94.15312 341.62027L90.7625 341.62027L90.7625 351.1359L88.45 351.1359ZM98.87187 351.1359L98.87187 346.30777L94.66875 339.68277L97.3875 339.68277L100.09062 344.21402L102.73125 339.68277L105.3875 339.68277L101.18437 346.3234L101.18437 351.1359L98.87187 351.1359Z" fill-rule="nonzero"/><path fill="#9e9e9e" d="M27.2625 366.9484Q26.41875 366.58902 26.028126 365.96402Q25.6375 365.33902 25.6375 364.58902Q25.6375 363.30777 26.528126 362.47964Q27.434376 361.6359 29.075 361.6359Q30.715626 361.6359 31.60625 362.47964Q32.5125 363.30777 32.5125 364.58902Q32.5125 365.3859 32.090626 366.0109Q31.684376 366.62027 30.934376 366.9484Q31.8875 367.33902 32.3875 368.0734Q32.8875 368.80777 32.8875 369.7609Q32.8875 371.35464 31.871876 372.35464Q30.85625 373.33902 29.184376 373.33902Q27.621876 373.33902 26.575 372.5109Q25.35625 371.54214 25.35625 369.85464Q25.35625 368.93277 25.809376 368.15152Q26.278126 367.37027 27.2625 366.9484ZM27.715626 364.74527Q27.715626 365.40152 28.090626 365.77652Q28.465626 366.1359 29.075 366.1359Q29.7 366.1359 30.075 365.7609Q30.45 365.3859 30.45 364.72964Q30.45 364.12027 30.075 363.74527Q29.715626 363.37027 29.10625 363.37027Q28.465626 363.37027 28.090626 363.74527Q27.715626 364.12027 27.715626 364.74527ZM27.5125 369.65152Q27.5125 370.55777 27.98125 371.0734Q28.45 371.5734 29.1375 371.5734Q29.825 371.5734 30.2625 371.08902Q30.715626 370.58902 30.715626 369.66714Q30.715626 368.87027 30.2625 368.3859Q29.809376 367.8859 29.10625 367.8859Q28.309376 367.8859 27.903126 368.4484Q27.5125 368.99527 27.5125 369.65152ZM34.85625 373.1359L34.85625 370.93277L37.04375 370.93277L37.04375 373.1359L34.85625 373.1359ZM38.3875 363.87027L38.3875 361.83902L45.8875 361.83902L45.8875 363.43277Q44.965626 364.33902 43.996876 366.05777Q43.04375 367.7609 42.528126 369.6984Q42.028126 371.62027 42.04375 373.1359L39.91875 373.1359Q39.98125 370.7609 40.903126 368.29214Q41.825 365.8234 43.371876 363.87027L38.3875 363.87027ZM47.403126 364.5109Q47.403126 362.96402 48.075 362.22964Q48.746876 361.47964 49.903126 361.47964Q51.10625 361.47964 51.778126 362.22964Q52.45 362.96402 52.45 364.5109Q52.45 366.04214 51.778126 366.79214Q51.10625 367.52652 49.95 367.52652Q48.746876 367.52652 48.075 366.79214Q47.403126 366.05777 47.403126 364.5109ZM49.10625 364.49527Q49.10625 365.60464 49.371876 365.99527Q49.559376 366.27652 49.903126 366.27652Q50.2625 366.27652 50.45 365.99527Q50.7 365.60464 50.7 364.49527Q50.7 363.37027 50.45 362.99527Q50.2625 362.71402 49.903126 362.71402Q49.559376 362.71402 49.371876 362.99527Q49.10625 363.37027 49.10625 364.49527ZM51.575 373.5734L49.95 373.5734L56.059376 361.47964L57.6375 361.47964L51.575 373.5734ZM55.121876 370.55777Q55.121876 369.02652 55.79375 368.29214Q56.48125 367.54214 57.653126 367.54214Q58.825 367.54214 59.496876 368.29214Q60.184376 369.02652 60.184376 370.55777Q60.184376 372.10464 59.496876 372.85464Q58.825 373.60464 57.66875 373.60464Q56.48125 373.60464 55.79375 372.85464Q55.121876 372.10464 55.121876 370.55777ZM56.840626 370.55777Q56.840626 371.66714 57.090626 372.04214Q57.29375 372.33902 57.6375 372.33902Q57.98125 372.33902 58.16875 372.05777Q58.434376 371.66714 58.434376 370.55777Q58.434376 369.43277 58.184376 369.05777Q57.98125 368.77652 57.6375 368.77652Q57.278126 368.77652 57.090626 369.05777Q56.840626 369.43277 56.840626 370.55777Z" fill-rule="nonzero"/><path stroke="#757575" stroke-width="1.0" stroke-linecap="butt" d="M24.7 356.6359L160.2 356.6359L278.77167 356.6359" fill-rule="nonzero"/><path fill="#9e9e9e" d="M280.77167 356.6359C280.77167 355.5313 279.87622 354.6359 278.77167 354.6359C277.66708 354.6359 276.77167 355.5313 276.77167 356.6359C276.77167 357.74045 277.66708 358.6359 278.77167 358.6359C279.87622 358.6359 280.77167 357.74045 280.77167 356.6359" fill-rule="nonzero"/><path fill="#1a1a1a" d="M709.8 240.7382L709.8 238.81633L714.78436 238.81633L714.78436 243.37883Q714.05 244.08195 712.675 244.62883Q711.3 245.16008 709.8781 245.16008Q708.08124 245.16008 706.7375 244.41008Q705.40936 243.64445 704.7375 242.2382Q704.0656 240.83195 704.0656 239.19133Q704.0656 237.39445 704.8156 236.00383Q705.5656 234.6132 707.01874 233.87883Q708.1125 233.3007 709.7531 233.3007Q711.89374 233.3007 713.08124 234.20695Q714.28436 235.09758 714.6281 236.6757L712.33124 237.09758Q712.09686 236.25383 711.425 235.76945Q710.7531 235.28508 709.7531 235.28508Q708.2375 235.28508 707.34686 236.25383Q706.45624 237.20695 706.45624 239.09758Q706.45624 241.12883 707.3625 242.16008Q708.26874 243.1757 709.7375 243.1757Q710.45624 243.1757 711.1906 242.89445Q711.925 242.59758 712.4406 242.19133L712.4406 240.7382L709.8 240.7382ZM716.47186 244.95695L716.47186 233.50383L724.95624 233.50383L724.95624 235.44133L718.78436 235.44133L718.78436 237.97258L724.53436 237.97258L724.53436 239.91008L718.78436 239.91008L718.78436 243.01945L725.175 243.01945L725.175 244.95695L716.47186 244.95695ZM730.05 244.95695L730.05 235.44133L726.64374 235.44133L726.64374 233.50383L735.7531 233.50383L735.7531 235.44133L732.3625 235.44133L732.3625 244.95695L730.05 244.95695ZM737.39374 244.95695L737.39374 233.50383L739.70624 233.50383L739.70624 244.95695L737.39374 244.95695ZM741.45624 233.50383L745.6906 233.50383Q747.1125 233.50383 747.8625 233.72258Q748.8781 234.01945 749.59686 234.78508Q750.3156 235.53508 750.6906 236.62883Q751.0656 237.72258 751.0656 239.33195Q751.0656 240.75383 750.70624 241.76945Q750.28436 243.01945 749.4875 243.8007Q748.8781 244.37883 747.8625 244.70695Q747.09686 244.95695 745.8156 244.95695L741.45624 244.95695L741.45624 233.50383ZM743.76874 235.44133L743.76874 243.01945L745.5031 243.01945Q746.47186 243.01945 746.89374 242.91008Q747.45624 242.76945 747.83124 242.44133Q748.20624 242.09758 748.4406 241.33195Q748.675 240.56633 748.675 239.2382Q748.675 237.91008 748.4406 237.20695Q748.20624 236.4882 747.78436 236.09758Q747.3625 235.69133 746.70624 235.5507Q746.22186 235.44133 744.8156 235.44133L743.76874 235.44133Z" fill-rule="nonzero"/><path fill="#9e9e9e" d="M706.01874 264.0038L708.20624 263.78506Q708.3 264.51944 708.7531 264.95694Q709.22186 265.39444 709.8156 265.39444Q710.5031 265.39444 710.97186 264.83194Q711.45624 264.26944 711.45624 263.14444Q711.45624 262.09756 710.9875 261.5663Q710.51874 261.03506 709.7531 261.03506Q708.8156 261.03506 708.0656 261.8788L706.28436 261.6132L707.40936 255.66006L713.20624 255.66006L713.20624 257.70694L709.0656 257.70694L708.72186 259.66006Q709.45624 259.28506 710.22186 259.28506Q711.6906 259.28506 712.70624 260.34756Q713.72186 261.41006 713.72186 263.1132Q713.72186 264.51944 712.89374 265.6288Q711.78436 267.16006 709.8 267.16006Q708.20624 267.16006 707.20624 266.3007Q706.20624 265.4413 706.01874 264.0038ZM719.28436 266.95694L719.28436 264.64444L714.59686 264.64444L714.59686 262.72256L719.5656 255.45694L721.40936 255.45694L721.40936 262.72256L722.83124 262.72256L722.83124 264.64444L721.40936 264.64444L721.40936 266.95694L719.28436 266.95694ZM719.28436 262.72256L719.28436 258.8007L716.65936 262.72256L719.28436 262.72256ZM724.45624 266.95694L724.45624 264.7538L726.64374 264.7538L726.64374 266.95694L724.45624 266.95694ZM727.90936 263.91006L730.03436 263.66006Q730.1281 264.47256 730.5656 264.91006Q731.01874 265.33194 731.65936 265.33194Q732.33124 265.33194 732.8 264.8163Q733.26874 264.3007 733.26874 263.4257Q733.26874 262.59756 732.8156 262.1132Q732.3781 261.6288 731.7375 261.6288Q731.3156 261.6288 730.72186 261.78506L730.97186 260.0038Q731.8625 260.01944 732.33124 259.6132Q732.8 259.20694 732.8 258.51944Q732.8 257.9413 732.45624 257.59756Q732.1125 257.2538 731.53436 257.2538Q730.97186 257.2538 730.5656 257.64444Q730.175 258.03506 730.09686 258.78506L728.0656 258.4413Q728.28436 257.41006 728.70624 256.78506Q729.1281 256.16006 729.89374 255.81631Q730.65936 255.45694 731.59686 255.45694Q733.22186 255.45694 734.1906 256.4882Q735.0031 257.33194 735.0031 258.39444Q735.0031 259.89444 733.34686 260.8007Q734.33124 261.0038 734.925 261.7382Q735.51874 262.47256 735.51874 263.51944Q735.51874 265.01944 734.40936 266.09756Q733.3156 267.16006 731.675 267.16006Q730.1125 267.16006 729.08124 266.26944Q728.0656 265.3632 727.90936 263.91006ZM737.0031 258.33194Q737.0031 256.78506 737.675 256.0507Q738.34686 255.30069 739.5031 255.30069Q740.70624 255.30069 741.3781 256.0507Q742.05 256.78506 742.05 258.33194Q742.05 259.8632 741.3781 260.6132Q740.70624 261.34756 739.55 261.34756Q738.34686 261.34756 737.675 260.6132Q737.0031 259.8788 737.0031 258.33194ZM738.70624 258.3163Q738.70624 259.4257 738.97186 259.8163Q739.15936 260.09756 739.5031 260.09756Q739.8625 260.09756 740.05 259.8163Q740.3 259.4257 740.3 258.3163Q740.3 257.1913 740.05 256.8163Q739.8625 256.53506 739.5031 256.53506Q739.15936 256.53506 738.97186 256.8163Q738.70624 257.1913 738.70624 258.3163ZM741.175 267.39444L739.55 267.39444L745.65936 255.30069L747.2375 255.30069L741.175 267.39444ZM744.72186 264.3788Q744.72186 262.84756 745.39374 262.1132Q746.08124 261.3632 747.2531 261.3632Q748.425 261.3632 749.09686 262.1132Q749.78436 262.84756 749.78436 264.3788Q749.78436 265.9257 749.09686 266.6757Q748.425 267.4257 747.26874 267.4257Q746.08124 267.4257 745.39374 266.6757Q744.72186 265.9257 744.72186 264.3788ZM746.4406 264.3788Q746.4406 265.4882 746.6906 265.8632Q746.89374 266.16006 747.2375 266.16006Q747.58124 266.16006 747.76874 265.8788Q748.03436 265.4882 748.03436 264.3788Q748.03436 263.2538 747.78436 262.8788Q747.58124 262.59756 747.2375 262.59756Q746.8781 262.59756 746.6906 262.8788Q746.4406 263.2538 746.4406 264.3788Z" fill-rule="nonzero"/><path stroke="#757575" stroke-width="1.0" stroke-linecap="butt" d="M752.3 250.45695L616.8 250.45695L597.718 250.45695" fill-rule="nonzero"/><path fill="#9e9e9e" d="M599.718 250.45695C599.718 249.35237 598.8226 248.45695 597.718 248.45695C596.61346 248.45695 595.718 249.35237 595.718 250.45695C595.718 251.56152 596.61346 252.45695 597.718 252.45695C598.8226 252.45695 599.718 251.56152 599.718 250.45695" fill-rule="nonzero"/></svg>